<svg id="visual" viewBox="0 0 900 600" width="900" height="600" xmlns="http://www.w3.org/2000/svg" xmlns:xlink="http://www.w3.org/1999/xlink" version="1.1"><g stroke-width="1" stroke-linejoin="bevel"><path d="M428 307L443 206L357.5 203Z" fill="#000000" stroke="#000000"></path><path d="M357.5 203L317.5 275L428 307Z" fill="#090909" stroke="#090909"></path><path d="M357.5 203L235 225L317.5 275Z" fill="#111111" stroke="#111111"></path><path d="M588.5 288L549.5 180L443 206Z" fill="#000000" stroke="#000000"></path><path d="M425 70L320.5 102L357.5 203Z" fill="#040404" stroke="#040404"></path><path d="M425 70L357.5 203L443 206Z" fill="#111111" stroke="#111111"></path><path d="M357.5 203L320.5 102L235 225Z" fill="#121212" stroke="#121212"></path><path d="M221 371L313.5 412L317.5 275Z" fill="#070707" stroke="#070707"></path><path d="M317.5 275L313.5 412L428 307Z" fill="#070707" stroke="#070707"></path><path d="M313.5 412L467 420L428 307Z" fill="#0f0f0f" stroke="#0f0f0f"></path><path d="M428 307L588.5 288L443 206Z" fill="#070707" stroke="#070707"></path><path d="M549.5 180L425 70L443 206Z" fill="#020202" stroke="#020202"></path><path d="M467 420L588.5 288L428 307Z" fill="#121212" stroke="#121212"></path><path d="M221 0L254 102L320.5 102Z" fill="#0b0b0b" stroke="#0b0b0b"></path><path d="M320.5 102L254 102L235 225Z" fill="#0b0b0b" stroke="#0b0b0b"></path><path d="M144.5 232L196 302L235 225Z" fill="#141414" stroke="#141414"></path><path d="M235 225L196 302L317.5 275Z" fill="#141414" stroke="#141414"></path><path d="M196 302L221 371L317.5 275Z" fill="#090909" stroke="#090909"></path><path d="M313.5 412L467 469L467 420Z" fill="#040404" stroke="#040404"></path><path d="M467 420L583.5 426L588.5 288Z" fill="#0f0f0f" stroke="#0f0f0f"></path><path d="M695 207L592.5 100L549.5 180Z" fill="#040404" stroke="#040404"></path><path d="M549.5 180L592.5 100L425 70Z" fill="#111111" stroke="#111111"></path><path d="M425 70L362.5 0L320.5 102Z" fill="#040404" stroke="#040404"></path><path d="M456 0L362.5 0L425 70Z" fill="#070707" stroke="#070707"></path><path d="M467 469L583.5 426L467 420Z" fill="#111111" stroke="#111111"></path><path d="M254 102L144.5 232L235 225Z" fill="#000000" stroke="#000000"></path><path d="M196 302L126.5 328L221 371Z" fill="#0d0d0d" stroke="#0d0d0d"></path><path d="M541.5 0L456 0L425 70Z" fill="#0f0f0f" stroke="#0f0f0f"></path><path d="M251 518L318.5 498L313.5 412Z" fill="#070707" stroke="#070707"></path><path d="M313.5 412L318.5 498L467 469Z" fill="#141414" stroke="#141414"></path><path d="M144.5 232L126.5 328L196 302Z" fill="#070707" stroke="#070707"></path><path d="M221 371L251 518L313.5 412Z" fill="#090909" stroke="#090909"></path><path d="M592.5 100L541.5 0L425 70Z" fill="#000000" stroke="#000000"></path><path d="M677 391L692 310L588.5 288Z" fill="#0f0f0f" stroke="#0f0f0f"></path><path d="M588.5 288L695 207L549.5 180Z" fill="#090909" stroke="#090909"></path><path d="M692 310L695 207L588.5 288Z" fill="#040404" stroke="#040404"></path><path d="M592.5 100L703 0L541.5 0Z" fill="#121212" stroke="#121212"></path><path d="M132.5 482L251 518L221 371Z" fill="#121212" stroke="#121212"></path><path d="M565.5 600L589.5 504L467 469Z" fill="#141414" stroke="#141414"></path><path d="M362.5 0L221 0L320.5 102Z" fill="#0b0b0b" stroke="#0b0b0b"></path><path d="M254 102L91.5 77L144.5 232Z" fill="#121212" stroke="#121212"></path><path d="M583.5 426L677 391L588.5 288Z" fill="#000000" stroke="#000000"></path><path d="M428 600L467 469L318.5 498Z" fill="#0f0f0f" stroke="#0f0f0f"></path><path d="M467 469L589.5 504L583.5 426Z" fill="#020202" stroke="#020202"></path><path d="M583.5 426L643 521L677 391Z" fill="#040404" stroke="#040404"></path><path d="M126.5 328L128.5 425L221 371Z" fill="#0d0d0d" stroke="#0d0d0d"></path><path d="M782.5 217L705 116L695 207Z" fill="#020202" stroke="#020202"></path><path d="M695 207L705 116L592.5 100Z" fill="#090909" stroke="#090909"></path><path d="M307.5 600L428 600L318.5 498Z" fill="#020202" stroke="#020202"></path><path d="M128.5 425L132.5 482L221 371Z" fill="#0d0d0d" stroke="#0d0d0d"></path><path d="M251 518L307.5 600L318.5 498Z" fill="#141414" stroke="#141414"></path><path d="M221 0L91.5 77L254 102Z" fill="#090909" stroke="#090909"></path><path d="M144.5 232L0 298L126.5 328Z" fill="#0f0f0f" stroke="#0f0f0f"></path><path d="M126.5 328L0 417L128.5 425Z" fill="#090909" stroke="#090909"></path><path d="M128.5 425L0 474L132.5 482Z" fill="#0f0f0f" stroke="#0f0f0f"></path><path d="M243 600L307.5 600L251 518Z" fill="#0f0f0f" stroke="#0f0f0f"></path><path d="M565.5 600L643 521L589.5 504Z" fill="#020202" stroke="#020202"></path><path d="M589.5 504L643 521L583.5 426Z" fill="#000000" stroke="#000000"></path><path d="M221 0L119.5 0L91.5 77Z" fill="#000000" stroke="#000000"></path><path d="M130.5 600L243 600L251 518Z" fill="#090909" stroke="#090909"></path><path d="M783.5 290L782.5 217L695 207Z" fill="#0b0b0b" stroke="#0b0b0b"></path><path d="M783.5 290L695 207L692 310Z" fill="#0f0f0f" stroke="#0f0f0f"></path><path d="M762.5 380L692 310L677 391Z" fill="#121212" stroke="#121212"></path><path d="M774.5 503L762.5 380L677 391Z" fill="#0d0d0d" stroke="#0d0d0d"></path><path d="M428 600L565.5 600L467 469Z" fill="#070707" stroke="#070707"></path><path d="M762.5 380L783.5 290L692 310Z" fill="#111111" stroke="#111111"></path><path d="M799.5 110L703 0L705 116Z" fill="#111111" stroke="#111111"></path><path d="M705 116L703 0L592.5 100Z" fill="#000000" stroke="#000000"></path><path d="M0 182L0 298L144.5 232Z" fill="#0b0b0b" stroke="#0b0b0b"></path><path d="M0 182L144.5 232L91.5 77Z" fill="#040404" stroke="#040404"></path><path d="M0 92L0 182L91.5 77Z" fill="#0d0d0d" stroke="#0d0d0d"></path><path d="M900 195L799.5 110L782.5 217Z" fill="#090909" stroke="#090909"></path><path d="M782.5 217L799.5 110L705 116Z" fill="#000000" stroke="#000000"></path><path d="M0 0L0 92L91.5 77Z" fill="#040404" stroke="#040404"></path><path d="M565.5 600L652 600L643 521Z" fill="#0f0f0f" stroke="#0f0f0f"></path><path d="M643 521L774.5 503L677 391Z" fill="#0f0f0f" stroke="#0f0f0f"></path><path d="M0 298L0 417L126.5 328Z" fill="#141414" stroke="#141414"></path><path d="M132.5 482L130.5 600L251 518Z" fill="#141414" stroke="#141414"></path><path d="M0 600L130.5 600L132.5 482Z" fill="#121212" stroke="#121212"></path><path d="M900 381L900 294L783.5 290Z" fill="#0f0f0f" stroke="#0f0f0f"></path><path d="M783.5 290L900 294L782.5 217Z" fill="#020202" stroke="#020202"></path><path d="M652 600L774.5 503L643 521Z" fill="#000000" stroke="#000000"></path><path d="M0 417L0 474L128.5 425Z" fill="#070707" stroke="#070707"></path><path d="M119.5 0L0 0L91.5 77Z" fill="#111111" stroke="#111111"></path><path d="M900 110L809.5 0L799.5 110Z" fill="#141414" stroke="#141414"></path><path d="M799.5 110L809.5 0L703 0Z" fill="#070707" stroke="#070707"></path><path d="M900 381L783.5 290L762.5 380Z" fill="#141414" stroke="#141414"></path><path d="M900 294L900 195L782.5 217Z" fill="#040404" stroke="#040404"></path><path d="M774.5 503L900 381L762.5 380Z" fill="#020202" stroke="#020202"></path><path d="M900 195L900 110L799.5 110Z" fill="#0d0d0d" stroke="#0d0d0d"></path><path d="M0 474L0 600L132.5 482Z" fill="#111111" stroke="#111111"></path><path d="M652 600L811.5 600L774.5 503Z" fill="#111111" stroke="#111111"></path><path d="M774.5 503L900 531L900 381Z" fill="#070707" stroke="#070707"></path><path d="M900 110L900 0L809.5 0Z" fill="#000000" stroke="#000000"></path><path d="M811.5 600L900 531L774.5 503Z" fill="#070707" stroke="#070707"></path><path d="M811.5 600L900 600L900 531Z" fill="#121212" stroke="#121212"></path></g></svg>