<?xml version="1.0" standalone="no"?>
<svg xmlns:xlink="http://www.w3.org/1999/xlink" id="wave" style="transform:rotate(180deg); transition: 0.3s" viewBox="0 0 1440 490" version="1.1" xmlns="http://www.w3.org/2000/svg"><defs><linearGradient id="sw-gradient-0" x1="0" x2="0" y1="1" y2="0"><stop stop-color="rgba(221, 153, 51, 1)" offset="0%"/><stop stop-color="rgba(255, 179, 11, 1)" offset="100%"/></linearGradient></defs><path style="transform:translate(0, 0px); opacity:1" fill="url(#sw-gradient-0)" d="M0,294L120,261.3C240,229,480,163,720,163.3C960,163,1200,229,1440,228.7C1680,229,1920,163,2160,138.8C2400,114,2640,131,2880,114.3C3120,98,3360,49,3600,73.5C3840,98,4080,196,4320,220.5C4560,245,4800,196,5040,155.2C5280,114,5520,82,5760,73.5C6000,65,6240,82,6480,98C6720,114,6960,131,7200,155.2C7440,180,7680,212,7920,212.3C8160,212,8400,180,8640,179.7C8880,180,9120,212,9360,196C9600,180,9840,114,10080,130.7C10320,147,10560,245,10800,277.7C11040,310,11280,278,11520,277.7C11760,278,12000,310,12240,310.3C12480,310,12720,278,12960,245C13200,212,13440,180,13680,138.8C13920,98,14160,49,14400,89.8C14640,131,14880,261,15120,285.8C15360,310,15600,229,15840,204.2C16080,180,16320,212,16560,261.3C16800,310,17040,376,17160,408.3L17280,441L17280,490L17160,490C17040,490,16800,490,16560,490C16320,490,16080,490,15840,490C15600,490,15360,490,15120,490C14880,490,14640,490,14400,490C14160,490,13920,490,13680,490C13440,490,13200,490,12960,490C12720,490,12480,490,12240,490C12000,490,11760,490,11520,490C11280,490,11040,490,10800,490C10560,490,10320,490,10080,490C9840,490,9600,490,9360,490C9120,490,8880,490,8640,490C8400,490,8160,490,7920,490C7680,490,7440,490,7200,490C6960,490,6720,490,6480,490C6240,490,6000,490,5760,490C5520,490,5280,490,5040,490C4800,490,4560,490,4320,490C4080,490,3840,490,3600,490C3360,490,3120,490,2880,490C2640,490,2400,490,2160,490C1920,490,1680,490,1440,490C1200,490,960,490,720,490C480,490,240,490,120,490L0,490Z"/></svg>